<?xml version="1.0" encoding="utf-8"?>
<!-- Generator: Adobe Illustrator 16.0.0, SVG Export Plug-In . SVG Version: 6.00 Build 0)  -->
<!DOCTYPE svg PUBLIC "-//W3C//DTD SVG 1.1//EN" "http://www.w3.org/Graphics/SVG/1.1/DTD/svg11.dtd">
<svg version="1.1" xmlns="http://www.w3.org/2000/svg" xmlns:xlink="http://www.w3.org/1999/xlink" x="0px" y="0px" width="100px"
	 height="100px" viewBox="0 0 100 100" enable-background="new 0 0 100 100" xml:space="preserve">
<g id="Laag_1" display="none">
	
		<image display="inline" overflow="visible" width="553" height="567" xlink:href="338F0764.jpg"  transform="matrix(-1.152655e-008 0.2637 -0.2637 -1.152655e-008 152.9473 -57.2515)">
	</image>
</g>
<g id="body">
	<g>
		<path fill="#FF9F2C" stroke="#66301F" stroke-miterlimit="10" d="M15.078,54.901c0,0-3.707,1.598-5.717,2.49
			c-2.01,0.894-3.35,2.233-4.802,2.233s3.372,1.34,5.259,0.894c1.887-0.447,3.798-1.716,5.259-0.781
			c1.461,0.934,2.304,2.356,2.304,2.356l3.145-2.134L15.078,54.901z"/>
		<path fill="#232323" stroke="#000000" stroke-miterlimit="10" d="M14.793,49.688c1.271,5.827-0.676,9.315,4.332,12.406
			c3.836,2.368,10.428,3.146,24.333,2.52c13.905-0.626,42.853-8.541,42.853-16.496c0-7.956-20.59-14.674-42.853-13.837
			c-11.584,0.436-29.162,3.721-33.494,5.632C0.434,44.118,13.792,45.094,14.793,49.688z"/>
		<path fill="#F2F2F2" stroke="#1C1C1C" stroke-miterlimit="10" d="M15.685,54.901c0,0,5.197-2.006,7.542-2.647
			c2.345-0.642,7.802-2.566,11.934-2.566c4.132,0,11.943,5.402,21.323,4.476s12.57-2.603,21.162-1.432
			c8.593,1.171-15.864,12.938-36.188,13.049c-20.322,0.111-20.95-0.672-24.076-3.687C14.256,59.078,15.685,54.901,15.685,54.901z"/>
		<circle stroke="#FFFFFF" stroke-miterlimit="10" cx="73.986" cy="43.343" r="1.75"/>
	</g>
</g>
<g id="arm">
	<path display="none" fill="#232323" stroke="#000000" stroke-linecap="round" stroke-miterlimit="10" d="M63.977,52.669
		c0,0-5.84,4.34-9.548,5.98c-3.708,1.639-21.088,0.743-23.675,0.021c-2.587-0.722,4.916-3.491,8.817-4.182
		c4.34-0.769,4.34-0.769,7.975-1.914"/>
	<path fill="#232323" stroke="#000000" stroke-linecap="round" stroke-miterlimit="10" d="M63.977,52.669
		c0,0-9.446-6.104-12.894-8.137c-3.45-2.031-20.006-5.13-22.667-4.782C25.754,40.097,33.23,45.842,37,47
		c4.195,1.29,7.103,4.021,10.545,5.575"/>
</g>
<g id="mouth">
	<path fill="#FF9F2C" stroke="#66301F" stroke-miterlimit="10" d="M83.5,44.57c0.5-0.445,11.959,3.088,11.917,3.634
		S84.063,52.299,83.5,51.837S83,45.016,83.5,44.57z"/>
	<path display="none" fill="#FF9F2C" stroke="#66301F" stroke-miterlimit="10" d="M83.5,45.57c0.438-0.39,9.042-3.945,11.38-3.445
		c0.336,0.072-8.416,6.011-8.422,6.079c-0.005,0.058,8.652,5.36,8.437,5.504C92.584,55.25,84.003,51.25,83.5,50.837
		C82.938,50.375,83,46.016,83.5,45.57z"/>
</g>
</svg>
